<svg width="1681" height="946" viewBox="0 0 1681 946" fill="none" xmlns="http://www.w3.org/2000/svg">
<g clip-path="url(#clip0_223_92)">
<path d="M288.579 353V419.289H278.26L187.97 396.181L188.466 370.471C188.466 370.471 188.032 356.427 177.218 355.097V353H288.579Z" fill="white"/>
<path d="M177.218 353V355.097H176.434C173.571 355.68 170.953 356.998 168.893 358.894C166.833 360.79 165.417 363.184 164.815 365.79L163.659 396.088L77.6415 419.289H64V353H177.218Z" fill="white"/>
<path d="M223.24 431.723V560.536L232.713 579H114.17L123.643 560.536L123.891 432.49L131.753 431.854L166.383 429.101L169.293 474.998L161.327 479.211L144.776 487.975L144.631 497.3L169.5 492.3L176.496 490.896L208.938 497.3V487.6L184.132 474.829L186.443 429.101L223.24 431.723Z" fill="white"/>
<path d="M528.594 579H470.625L435.781 521.344C433.177 516.969 430.677 513.062 428.281 509.625C425.885 506.188 423.438 503.271 420.938 500.875C418.542 498.375 415.99 496.5 413.281 495.25C410.677 493.896 407.812 493.219 404.688 493.219H391.094V579H340.625V354.938H420.625C475 354.938 502.188 375.25 502.188 415.875C502.188 423.688 500.99 430.927 498.594 437.594C496.198 444.156 492.812 450.094 488.438 455.406C484.062 460.719 478.75 465.302 472.5 469.156C466.354 473.01 459.479 476.031 451.875 478.219V478.844C455.208 479.885 458.438 481.604 461.562 484C464.688 486.292 467.708 489 470.625 492.125C473.542 495.25 476.302 498.635 478.906 502.281C481.615 505.823 484.062 509.312 486.25 512.75L528.594 579ZM391.094 392.75V455.094H412.969C423.802 455.094 432.5 451.969 439.062 445.719C445.729 439.365 449.062 431.5 449.062 422.125C449.062 402.542 437.344 392.75 413.906 392.75H391.094ZM778.719 579H723.719L707.781 529.156H628.094L612.312 579H557.625L639.188 354.938H699.031L778.719 579ZM696.219 490.406L672.156 415.094C670.385 409.469 669.135 402.75 668.406 394.938H667.156C666.635 401.5 665.333 408.01 663.25 414.469L638.875 490.406H696.219ZM1007.44 354.938L930.25 579H873.062L796.812 354.938H851.188L897.906 510.875C900.406 519.312 901.917 526.76 902.438 533.219H903.375C904.104 526.24 905.719 518.583 908.219 510.25L954.625 354.938H1007.44ZM1200.69 579H1066.31V354.938H1195.53V396.031H1116.78V445.875H1190.06V486.812H1116.78V538.062H1200.69V579ZM1402.06 579H1268.62V354.938H1319.09V538.062H1402.06V579ZM1454.06 570.406V520.406C1463.12 528.01 1472.97 533.74 1483.59 537.594C1494.22 541.344 1504.95 543.219 1515.78 543.219C1522.14 543.219 1527.66 542.646 1532.34 541.5C1537.14 540.354 1541.09 538.792 1544.22 536.812C1547.45 534.729 1549.84 532.333 1551.41 529.625C1552.97 526.812 1553.75 523.792 1553.75 520.562C1553.75 516.188 1552.5 512.281 1550 508.844C1547.5 505.406 1544.06 502.229 1539.69 499.312C1535.42 496.396 1530.31 493.583 1524.38 490.875C1518.44 488.167 1512.03 485.406 1505.16 482.594C1487.66 475.302 1474.58 466.396 1465.94 455.875C1457.4 445.354 1453.12 432.646 1453.12 417.75C1453.12 406.083 1455.47 396.083 1460.16 387.75C1464.84 379.312 1471.2 372.385 1479.22 366.969C1487.34 361.552 1496.72 357.594 1507.34 355.094C1517.97 352.49 1529.22 351.188 1541.09 351.188C1552.76 351.188 1563.07 351.917 1572.03 353.375C1581.09 354.729 1589.43 356.865 1597.03 359.781V406.5C1593.28 403.896 1589.17 401.604 1584.69 399.625C1580.31 397.646 1575.78 396.031 1571.09 394.781C1566.41 393.427 1561.72 392.438 1557.03 391.812C1552.45 391.188 1548.07 390.875 1543.91 390.875C1538.18 390.875 1532.97 391.448 1528.28 392.594C1523.59 393.635 1519.64 395.146 1516.41 397.125C1513.18 399.104 1510.68 401.5 1508.91 404.312C1507.14 407.021 1506.25 410.094 1506.25 413.531C1506.25 417.281 1507.24 420.667 1509.22 423.688C1511.2 426.604 1514.01 429.417 1517.66 432.125C1521.3 434.729 1525.73 437.333 1530.94 439.938C1536.15 442.438 1542.03 445.042 1548.59 447.75C1557.55 451.5 1565.57 455.51 1572.66 459.781C1579.84 463.948 1585.99 468.688 1591.09 474C1596.2 479.312 1600.1 485.406 1602.81 492.281C1605.52 499.052 1606.88 506.969 1606.88 516.031C1606.88 528.531 1604.48 539.052 1599.69 547.594C1595 556.031 1588.59 562.906 1580.47 568.219C1572.34 573.427 1562.86 577.177 1552.03 579.469C1541.3 581.76 1529.95 582.906 1517.97 582.906C1505.68 582.906 1493.96 581.865 1482.81 579.781C1471.77 577.698 1462.19 574.573 1454.06 570.406Z" fill="white"/>
<rect width="479" height="7" transform="matrix(1 0 0 -1 55 304)" fill="white"/>
<rect width="479" height="7" transform="matrix(1 0 0 -1 55 271)" fill="white"/>
<path d="M121.309 175.98L97.1875 246H79.3164L55.4883 175.98H72.4805L87.0801 224.711C87.8613 227.348 88.3333 229.675 88.4961 231.693H88.7891C89.0169 229.512 89.5215 227.12 90.3027 224.516L104.805 175.98H121.309ZM155.479 246H139.707V175.98H155.479V246ZM181.445 246V175.98H206.934C214.746 175.98 220.752 177.413 224.951 180.277C229.15 183.142 231.25 187.178 231.25 192.387C231.25 196.163 229.964 199.467 227.393 202.299C224.854 205.131 221.598 207.1 217.627 208.207V208.402C222.607 209.021 226.579 210.86 229.541 213.92C232.536 216.98 234.033 220.707 234.033 225.102C234.033 231.514 231.738 236.609 227.148 240.385C222.559 244.128 216.292 246 208.35 246H181.445ZM197.217 187.602V204.203H204.15C207.406 204.203 209.961 203.422 211.816 201.859C213.704 200.264 214.648 198.083 214.648 195.316C214.648 190.173 210.807 187.602 203.125 187.602H197.217ZM197.217 215.922V234.379H205.762C209.408 234.379 212.256 233.533 214.307 231.84C216.39 230.147 217.432 227.836 217.432 224.906C217.432 222.107 216.406 219.91 214.355 218.314C212.337 216.719 209.505 215.922 205.859 215.922H197.217ZM252.383 243.314V227.689C255.215 230.066 258.291 231.856 261.611 233.061C264.932 234.232 268.285 234.818 271.67 234.818C273.656 234.818 275.381 234.639 276.846 234.281C278.343 233.923 279.58 233.435 280.557 232.816C281.566 232.165 282.314 231.417 282.803 230.57C283.291 229.691 283.535 228.747 283.535 227.738C283.535 226.371 283.145 225.15 282.363 224.076C281.582 223.002 280.508 222.009 279.141 221.098C277.806 220.186 276.211 219.307 274.355 218.461C272.5 217.615 270.498 216.752 268.35 215.873C262.881 213.594 258.796 210.811 256.094 207.523C253.424 204.236 252.09 200.264 252.09 195.609C252.09 191.964 252.822 188.839 254.287 186.234C255.752 183.598 257.738 181.433 260.244 179.74C262.783 178.048 265.713 176.811 269.033 176.029C272.354 175.215 275.869 174.809 279.58 174.809C283.226 174.809 286.449 175.036 289.248 175.492C292.08 175.915 294.684 176.583 297.061 177.494V192.094C295.889 191.28 294.603 190.564 293.203 189.945C291.836 189.327 290.42 188.822 288.955 188.432C287.49 188.008 286.025 187.699 284.561 187.504C283.128 187.309 281.761 187.211 280.459 187.211C278.669 187.211 277.041 187.39 275.576 187.748C274.111 188.074 272.874 188.546 271.865 189.164C270.856 189.783 270.075 190.531 269.521 191.41C268.968 192.257 268.691 193.217 268.691 194.291C268.691 195.463 269.001 196.521 269.619 197.465C270.238 198.376 271.117 199.255 272.256 200.102C273.395 200.915 274.779 201.729 276.406 202.543C278.034 203.324 279.873 204.138 281.924 204.984C284.723 206.156 287.23 207.41 289.443 208.744C291.689 210.046 293.61 211.527 295.205 213.188C296.8 214.848 298.021 216.752 298.867 218.9C299.714 221.016 300.137 223.49 300.137 226.322C300.137 230.229 299.388 233.516 297.891 236.186C296.426 238.822 294.424 240.971 291.885 242.631C289.346 244.258 286.383 245.43 282.998 246.146C279.645 246.863 276.097 247.221 272.354 247.221C268.512 247.221 264.85 246.895 261.367 246.244C257.917 245.593 254.922 244.617 252.383 243.314ZM383.232 246H366.045L361.064 230.424H336.162L331.23 246H314.141L339.629 175.98H358.33L383.232 246ZM357.451 218.314L349.932 194.779C349.378 193.021 348.988 190.922 348.76 188.48H348.369C348.206 190.531 347.799 192.566 347.148 194.584L339.531 218.314H357.451ZM398.75 243.314V227.689C401.582 230.066 404.658 231.856 407.979 233.061C411.299 234.232 414.652 234.818 418.037 234.818C420.023 234.818 421.748 234.639 423.213 234.281C424.71 233.923 425.947 233.435 426.924 232.816C427.933 232.165 428.682 231.417 429.17 230.57C429.658 229.691 429.902 228.747 429.902 227.738C429.902 226.371 429.512 225.15 428.73 224.076C427.949 223.002 426.875 222.009 425.508 221.098C424.173 220.186 422.578 219.307 420.723 218.461C418.867 217.615 416.865 216.752 414.717 215.873C409.248 213.594 405.163 210.811 402.461 207.523C399.792 204.236 398.457 200.264 398.457 195.609C398.457 191.964 399.189 188.839 400.654 186.234C402.119 183.598 404.105 181.433 406.611 179.74C409.15 178.048 412.08 176.811 415.4 176.029C418.721 175.215 422.236 174.809 425.947 174.809C429.593 174.809 432.816 175.036 435.615 175.492C438.447 175.915 441.051 176.583 443.428 177.494V192.094C442.256 191.28 440.97 190.564 439.57 189.945C438.203 189.327 436.787 188.822 435.322 188.432C433.857 188.008 432.393 187.699 430.928 187.504C429.495 187.309 428.128 187.211 426.826 187.211C425.036 187.211 423.408 187.39 421.943 187.748C420.479 188.074 419.242 188.546 418.232 189.164C417.223 189.783 416.442 190.531 415.889 191.41C415.335 192.257 415.059 193.217 415.059 194.291C415.059 195.463 415.368 196.521 415.986 197.465C416.605 198.376 417.484 199.255 418.623 200.102C419.762 200.915 421.146 201.729 422.773 202.543C424.401 203.324 426.24 204.138 428.291 204.984C431.09 206.156 433.597 207.41 435.811 208.744C438.057 210.046 439.977 211.527 441.572 213.188C443.167 214.848 444.388 216.752 445.234 218.9C446.081 221.016 446.504 223.49 446.504 226.322C446.504 230.229 445.755 233.516 444.258 236.186C442.793 238.822 440.791 240.971 438.252 242.631C435.713 244.258 432.751 245.43 429.365 246.146C426.012 246.863 422.464 247.221 418.721 247.221C414.88 247.221 411.217 246.895 407.734 246.244C404.284 245.593 401.289 244.617 398.75 243.314Z" fill="white"/>
<line x1="55" y1="287" x2="534" y2="287" stroke="white" stroke-width="2" stroke-dasharray="38 38"/>
</g>
<defs>
<clipPath id="clip0_223_92">
<rect width="1681" height="946" fill="white"/>
</clipPath>
</defs>
</svg>
